<svg xmlns="http://www.w3.org/2000/svg" width="82" height="25" viewBox="0 0 82 25"><g transform="scale(0.7222222222 0.6944444444)"><g fill="#0e2a5e"><path d="m16.7636 0 11.7421 21.9861h-5.4392l-2.5509-4.815H8.0037l-2.578 4.815H0L11.7429 0zm-6.2764 12.5181h7.5313l-3.752-7.0614z"></path><path d="M48.279 0c1.6949-.0429 3.3385.693 4.5885 2.0547.602.6117 1.0843 1.3725 1.413 2.2291.3287.8567.4959 1.7884.4899 2.73.0058.868-.1373 1.7284-.4205 2.5285s-.7005 1.5233-1.2265 2.1253c-1.1093 1.2904-2.5575 2.0891-4.1026 2.2626l6.0198 8.0568h-5.8722l-5.5588-7.974h-8.4367v7.9758H30.125V0zM35.1729 9.1638l12.6202.0162a1.664 1.664 0 0 0 .7606-.135c.2435-.1048.4669-.2664.6571-.4752.1818-.1927.3257-.4306.4213-.697a2.3 2.3 0 0 0 .132-.8438 2.2 2.2 0 0 0-.1246-.8475c-.096-.2673-.2427-.5046-.4287-.6933-.1851-.2167-.4081-.3823-.6531-.485a1.51 1.51 0 0 0-.7646-.109H35.1729z"></path><path d="M77.4582 0c1.555-.0451 3.0641.6278 4.2108 1.8774.5511.5594.9917 1.2563 1.2904 2.0413s.4481 1.6386.4376 2.5001V7.831h-5.0456v-.369c.0068-.3466-.0514-.6906-.1704-1.0071s-.2959-.5975-.5177-.8226c-.2209-.2586-.4856-.4583-.7766-.5857s-.6013-.1796-.9105-.1532H64.8933c-.6238-.021-1.2296.2497-1.6872.7542-.2222.2211-.3994.4991-.5186.8131s-.177.656-.1694 1.0004v7.0614c-.0008.3471.0615.6903.1826 1.0061s.2981.5967.519.8236c.4638.48 1.0588.7426 1.6736.7389h11.0813c.6196-.007 1.2172-.2741 1.6872-.7542.2165-.2267.3899-.5058.5085-.8185.1187-.3127.1799-.6519.1796-.995v-.3366h5.0479v1.3797c.0105.8615-.1389 1.7151-.4376 2.5001s-.7393 1.482-1.2905 2.0413c-1.1466 1.2497-2.6558 1.9225-4.2107 1.8774H63.4097c-1.5544.0414-3.0625-.631-4.2108-1.8774-.5479-.5625-.9864-1.2601-1.2848-2.0443-.2984-.7843-.4496-1.6364-.4432-2.4971V6.4197c-.0059-.8621.1469-1.7154.4476-2.4999s.7422-1.4813 1.2933-2.0415C60.3557.634 61.8589-.0385 63.409.001z"></path><path d="m101.797 0 11.746 21.9861h-5.439l-2.551-4.815H93.0408l-2.5781 4.815h-5.4256L96.78 0zm-6.2765 12.5181h7.5315l-3.7522-7.0614z"></path></g><g fill="#29abe2"><path d="M39.9349 27.5634v2.0529H33.006c-.206-.0084-.4064.0803-.5578.2466a.78.78 0 0 0-.17.2695.9.9 0 0 0-.0571.3299v2.6379a.92.92 0 0 0 .0608.3298.79.79 0 0 0 .1708.2696c.1564.1516.3502.2382.5518.2466h5.0782V32.895h-2.3563v-1.9611h4.4492v5.0643H32.455c-.6084.0146-1.1984-.2478-1.6493-.7335-.2143-.2189-.3858-.4906-.5027-.7964-.1168-.3057-.1762-.6381-.174-.9739v-3.42a2.8 2.8 0 0 1 .1822-.9746c.1173-.3061.2873-.5796.499-.8029.4498-.4833 1.0371-.7454 1.6433-.7335z"></path><path d="M48.1408 27.5634c.6595-.0197 1.2997.2658 1.7856.7965.2188.225.397.5005.5237.8098s.1993.6459.2135.9895a2.99 2.99 0 0 1-.1312 1.0095c-.1007.3225-.2554.6174-.4546.8668-.3932.4898-.9097.8142-1.4715.9243L50.8771 36h-2.4623l-2.0823-2.9772h-2.9959V36h-2.0944v-8.4366zm-4.7997 3.4281h4.6173a.535.535 0 0 0 .2474-.0391.615.615 0 0 0 .2151-.1508c.1093-.1343.1705-.3139.1705-.5009s-.0612-.3665-.1705-.5008a.59.59 0 0 0-.2154-.1477.515.515 0 0 0-.2471-.0323h-4.6173z"></path><path d="M59.6695 27.5634c.6087-.0177 1.1997.2451 1.6493.7335.2187.2159.3933.4881.5106.796.1172.308.174.6436.1661.9815v3.42c.0052.338-.0533.673-.1711.9806-.1179.3076-.2922.5799-.5102.7969-.4474.4864-1.0365.7468-1.6425.7263h-5.4044c-.6062.012-1.1935-.2501-1.6433-.7335-.2142-.2189-.3857-.4906-.5026-.7964s-.1763-.6381-.1741-.9739v-3.42a2.8 2.8 0 0 1 .1824-.9745c.1173-.3061.2873-.5797.4989-.803.4479-.4821 1.033-.7442 1.6372-.7335zm-5.4045 2.2995a.77.77 0 0 0-.1699.2695.9.9 0 0 0-.0572.3299v2.6379a.92.92 0 0 0 .0608.3298.795.795 0 0 0 .1709.2696c.1561.1514.3496.238.551.2466h4.2955c.2042-.0042.401-.0912.5579-.2466a.77.77 0 0 0 .1702-.2693.89.89 0 0 0 .0569-.3301v-2.6379a.89.89 0 0 0-.0583-.3308.76.76 0 0 0-.1726-.2686.74.74 0 0 0-.2547-.1904.64.64 0 0 0-.2971-.0562h-4.2933c-.2067-.0092-.4082.0795-.5601.2466"></path><path d="M65.1742 27.5634v5.5377a.92.92 0 0 0 .0606.3296.8.8 0 0 0 .1703.2698c.1564.1515.3502.2381.5518.2466h3.8504c.2039-.0059.4003-.0927.5579-.2466a.74.74 0 0 0 .1727-.268.86.86 0 0 0 .0544-.3314v-5.5377h2.0997v5.9256c.0055.338-.0529.6731-.1708.9808s-.2923.5799-.5104.7967c-.446.4907-1.036.754-1.6433.7335h-4.9594c-.6083.0146-1.1984-.2478-1.6493-.7335-.2141-.2206-.3854-.4937-.5022-.8006a2.71 2.71 0 0 1-.1745-.9769v-5.9256z"></path><path d="M80.687 27.5634c.708-.0174 1.3943.2908 1.9158.8604.2497.2587.4498.578.587.9364.1371.3583.2081.7475.2081 1.1413s-.071.7829-.2081 1.1413-.3373.6776-.587.9363c-.5221.5677-1.2085.8736-1.9158.8541h-4.8291v2.5677h-2.0884v-8.4366zm-4.8291 3.8304h4.6513c.2172-.0025.4277-.0894.5994-.2475a.85.85 0 0 0 .1746-.2908.98.98 0 0 0 .0563-.3509.95.95 0 0 0-.0543-.3519.82.82 0 0 0-.1766-.2898.81.81 0 0 0-.279-.1944.706.706 0 0 0-.3204-.0522h-4.6513z"></path><path d="M23.1187 30.3111H0v2.9412h23.1187z"></path><path d="M113.539 30.3111H90.4199v2.9412h23.1191z"></path></g></g></svg>
